<svg xmlns="http://www.w3.org/2000/svg" viewBox="0 0 1024 1024">
  <defs>
    <linearGradient id="grad" x1="0%" y1="0%" x2="100%" y2="100%">
      <stop offset="0%" style="stop-color:#2E5C8A;stop-opacity:1" />
      <stop offset="50%" style="stop-color:#3B8B8B;stop-opacity:1" />
      <stop offset="100%" style="stop-color:#4DB8A8;stop-opacity:1" />
    </linearGradient>
  </defs>
  
  <!-- Rounded square background -->
  <rect width="1024" height="1024" rx="200" fill="url(#grad)"/>
  
  <!-- White circle -->
  <circle cx="512" cy="512" r="380" fill="none" stroke="white" stroke-width="40"/>
  
  <!-- Mortar and pestle -->
  <g fill="white">
    <!-- Pestle -->
    <ellipse cx="650" cy="380" rx="45" ry="55" transform="rotate(-30 650 380)"/>
    <rect x="620" y="380" width="60" height="180" rx="30" transform="rotate(-30 650 470)"/>
    
    <!-- Mortar bowl -->
    <path d="M 350 480 Q 350 520 380 560 L 380 680 Q 380 720 420 720 L 640 720 Q 680 720 680 680 L 680 560 Q 710 520 710 480 Z" />
    
    <!-- Pharmacy symbol P -->
    <g transform="translate(480, 580)">
      <rect x="-15" y="-80" width="40" height="160" rx="5"/>
      <path d="M 25 -80 L 80 -80 Q 110 -80 110 -50 Q 110 -20 80 -20 L 25 -20 Z"/>
      <rect x="15" y="-60" width="50" height="30"/>
    </g>
  </g>
</svg>
